<svg width="20" height="21" viewBox="0 0 20 21" fill="none" xmlns="http://www.w3.org/2000/svg">
<path d="M3.85 15.6C4.7 14.95 5.65 14.4373 6.7 14.062C7.75 13.6873 8.85 13.5 10 13.5C11.15 13.5 12.25 13.6873 13.3 14.062C14.35 14.4373 15.3 14.95 16.15 15.6C16.7333 14.9167 17.1877 14.1417 17.513 13.275C17.8377 12.4083 18 11.4833 18 10.5C18 8.28333 17.221 6.39567 15.663 4.837C14.1043 3.279 12.2167 2.5 10 2.5C7.78333 2.5 5.896 3.279 4.338 4.837C2.77933 6.39567 2 8.28333 2 10.5C2 11.4833 2.16267 12.4083 2.488 13.275C2.81267 14.1417 3.26667 14.9167 3.85 15.6ZM10 11.5C9.01667 11.5 8.18733 11.1627 7.512 10.488C6.83733 9.81267 6.5 8.98333 6.5 8C6.5 7.01667 6.83733 6.18733 7.512 5.512C8.18733 4.83733 9.01667 4.5 10 4.5C10.9833 4.5 11.8127 4.83733 12.488 5.512C13.1627 6.18733 13.5 7.01667 13.5 8C13.5 8.98333 13.1627 9.81267 12.488 10.488C11.8127 11.1627 10.9833 11.5 10 11.5ZM10 20.5C8.61667 20.5 7.31667 20.2373 6.1 19.712C4.88333 19.1873 3.825 18.475 2.925 17.575C2.025 16.675 1.31267 15.6167 0.788 14.4C0.262667 13.1833 0 11.8833 0 10.5C0 9.11667 0.262667 7.81667 0.788 6.6C1.31267 5.38333 2.025 4.325 2.925 3.425C3.825 2.525 4.88333 1.81233 6.1 1.287C7.31667 0.762333 8.61667 0.5 10 0.5C11.3833 0.5 12.6833 0.762333 13.9 1.287C15.1167 1.81233 16.175 2.525 17.075 3.425C17.975 4.325 18.6873 5.38333 19.212 6.6C19.7373 7.81667 20 9.11667 20 10.5C20 11.8833 19.7373 13.1833 19.212 14.4C18.6873 15.6167 17.975 16.675 17.075 17.575C16.175 18.475 15.1167 19.1873 13.9 19.712C12.6833 20.2373 11.3833 20.5 10 20.5ZM10 18.5C10.8833 18.5 11.7167 18.371 12.5 18.113C13.2833 17.8543 14 17.4833 14.65 17C14 16.5167 13.2833 16.1457 12.5 15.887C11.7167 15.629 10.8833 15.5 10 15.5C9.11667 15.5 8.28333 15.629 7.5 15.887C6.71667 16.1457 6 16.5167 5.35 17C6 17.4833 6.71667 17.8543 7.5 18.113C8.28333 18.371 9.11667 18.5 10 18.5ZM10 9.5C10.4333 9.5 10.7917 9.35833 11.075 9.075C11.3583 8.79167 11.5 8.43333 11.5 8C11.5 7.56667 11.3583 7.20833 11.075 6.925C10.7917 6.64167 10.4333 6.5 10 6.5C9.56667 6.5 9.20833 6.64167 8.925 6.925C8.64167 7.20833 8.5 7.56667 8.5 8C8.5 8.43333 8.64167 8.79167 8.925 9.075C9.20833 9.35833 9.56667 9.5 10 9.5Z" fill="#532437"/>
</svg>
