<svg width="25" height="24" viewBox="0 0 25 24" fill="none" xmlns="http://www.w3.org/2000/svg">
<mask id="mask0_1159_26765" style="mask-type:alpha" maskUnits="userSpaceOnUse" x="0" y="0" width="25" height="24">
<rect x="0.5" width="24" height="24" fill="#D9D9D9"/>
</mask>
<g mask="url(#mask0_1159_26765)">
<path d="M12.5 22C11.1167 22 9.81667 21.7373 8.6 21.212C7.38333 20.6873 6.325 19.975 5.425 19.075C4.525 18.175 3.81267 17.1167 3.288 15.9C2.76267 14.6833 2.5 13.3833 2.5 12C2.5 10.6167 2.76267 9.31667 3.288 8.1C3.81267 6.88333 4.525 5.825 5.425 4.925C6.325 4.025 7.38333 3.31233 8.6 2.787C9.81667 2.26233 11.1167 2 12.5 2C13.8833 2 15.1833 2.26233 16.4 2.787C17.6167 3.31233 18.675 4.025 19.575 4.925C20.475 5.825 21.1873 6.88333 21.712 8.1C22.2373 9.31667 22.5 10.6167 22.5 12C22.5 13.3833 22.2373 14.6833 21.712 15.9C21.1873 17.1167 20.475 18.175 19.575 19.075C18.675 19.975 17.6167 20.6873 16.4 21.212C15.1833 21.7373 13.8833 22 12.5 22ZM12.5 20C14.7167 20 16.6043 19.221 18.163 17.663C19.721 16.1043 20.5 14.2167 20.5 12C20.5 9.78333 19.721 7.89567 18.163 6.337C16.6043 4.779 14.7167 4 12.5 4C10.2833 4 8.396 4.779 6.838 6.337C5.27933 7.89567 4.5 9.78333 4.5 12C4.5 14.2167 5.27933 16.1043 6.838 17.663C8.396 19.221 10.2833 20 12.5 20ZM14 10.9L14.5 10.6C14.5333 11 14.6917 11.3333 14.975 11.6C15.2583 11.8667 15.6 12 16 12C16.4167 12 16.7707 11.854 17.062 11.562C17.354 11.2707 17.5 10.9167 17.5 10.5C17.5 10.25 17.4417 10.0123 17.325 9.787C17.2083 9.56233 17.05 9.38333 16.85 9.25L17.5 8.875L17 8L13.5 10L14 10.9ZM11 10.9L11.5 10L8 8L7.5 8.875L8.15 9.25C7.95 9.38333 7.79167 9.56233 7.675 9.787C7.55833 10.0123 7.5 10.25 7.5 10.5C7.5 10.9167 7.646 11.2707 7.938 11.562C8.22933 11.854 8.58333 12 9 12C9.4 12 9.74167 11.8667 10.025 11.6C10.3083 11.3333 10.4667 11 10.5 10.6L11 10.9ZM12.5 13C11.3167 13 10.275 13.379 9.375 14.137C8.475 14.8957 7.84167 15.85 7.475 17H17.525C17.1583 15.85 16.525 14.8957 15.625 14.137C14.725 13.379 13.6833 13 12.5 13Z" fill="#532437"/>
</g>
</svg>
