<svg width="24" height="24" viewBox="0 0 24 24" fill="none" xmlns="http://www.w3.org/2000/svg">
<path d="M9.5 13.875H14.5V12H9.5V13.875ZM9.5 10.75H18.25V8.875H9.5V10.75ZM9.5 7.625H18.25V5.75H9.5V7.625ZM7.625 18.25C7.10417 18.25 6.66167 18.0675 6.2975 17.7025C5.9325 17.3383 5.75 16.8958 5.75 16.375V3.875C5.75 3.35417 5.9325 2.91167 6.2975 2.5475C6.66167 2.1825 7.10417 2 7.625 2H20.125C20.6458 2 21.0883 2.1825 21.4525 2.5475C21.8175 2.91167 22 3.35417 22 3.875V16.375C22 16.8958 21.8175 17.3383 21.4525 17.7025C21.0883 18.0675 20.6458 18.25 20.125 18.25H7.625ZM7.625 16.375H20.125V3.875H7.625V16.375ZM3.875 22C3.35417 22 2.91167 21.8175 2.5475 21.4525C2.1825 21.0883 2 20.6458 2 20.125V5.75H3.875V20.125H18.25V22H3.875Z" fill="#532437"/>
</svg>
