<svg width="24" height="25" viewBox="0 0 24 25" fill="none" xmlns="http://www.w3.org/2000/svg">
<g clip-path="url(#clip0_976_24675)">
<path d="M16 11.5C17.66 11.5 18.99 10.16 18.99 8.5C18.99 6.84 17.66 5.5 16 5.5C14.34 5.5 13 6.84 13 8.5C13 10.16 14.34 11.5 16 11.5ZM8 11.5C9.66 11.5 10.99 10.16 10.99 8.5C10.99 6.84 9.66 5.5 8 5.5C6.34 5.5 5 6.84 5 8.5C5 10.16 6.34 11.5 8 11.5ZM8 13.5C5.67 13.5 1 14.67 1 17V19.5H15V17C15 14.67 10.33 13.5 8 13.5ZM16 13.5C15.71 13.5 15.38 13.52 15.03 13.55C16.19 14.39 17 15.52 17 17V19.5H23V17C23 14.67 18.33 13.5 16 13.5Z" fill="#F29C1F"/>
</g>
<defs>
<clipPath id="clip0_976_24675">
<rect width="24" height="24" fill="white" transform="translate(0 0.5)"/>
</clipPath>
</defs>
</svg>
