<svg width="24" height="24" viewBox="0 0 24 24" fill="none" xmlns="http://www.w3.org/2000/svg">
<path d="M9.5 16.375L16.375 12L9.5 7.625V16.375ZM12 22C10.6283 22 9.335 21.7396 8.12 21.2188C6.905 20.6979 5.84167 19.9817 4.93 19.07C4.01833 18.1583 3.30208 17.095 2.78125 15.88C2.26042 14.665 2 13.3717 2 12C2 10.6108 2.26042 9.31292 2.78125 8.10625C3.30208 6.90042 4.01833 5.84167 4.93 4.93C5.84167 4.01833 6.905 3.30208 8.12 2.78125C9.335 2.26042 10.6283 2 12 2C13.3892 2 14.6871 2.26042 15.8937 2.78125C17.0996 3.30208 18.1583 4.01833 19.07 4.93C19.9817 5.84167 20.6979 6.90042 21.2188 8.10625C21.7396 9.31292 22 10.6108 22 12C22 13.3717 21.7396 14.665 21.2188 15.88C20.6979 17.095 19.9817 18.1583 19.07 19.07C18.1583 19.9817 17.0996 20.6979 15.8937 21.2188C14.6871 21.7396 13.3892 22 12 22ZM12 20.125C14.2567 20.125 16.175 19.335 17.755 17.755C19.335 16.175 20.125 14.2567 20.125 12C20.125 9.74333 19.335 7.825 17.755 6.245C16.175 4.665 14.2567 3.875 12 3.875C9.74333 3.875 7.825 4.665 6.245 6.245C4.665 7.825 3.875 9.74333 3.875 12C3.875 14.2567 4.665 16.175 6.245 17.755C7.825 19.335 9.74333 20.125 12 20.125Z" fill="#532437"/>
</svg>
