<svg width="24" height="25" viewBox="0 0 24 25" fill="none" xmlns="http://www.w3.org/2000/svg">
<g clip-path="url(#clip0_976_24666)">
<path d="M12.9998 9.06982C12.2098 9.06982 11.5698 9.70982 11.5698 10.4998C11.5698 11.2898 12.2098 11.9298 12.9998 11.9298C13.7898 11.9298 14.4298 11.2898 14.4298 10.4998C14.4298 9.70982 13.7898 9.06982 12.9998 9.06982Z" fill="#F29C1F"/>
<path d="M12.9998 3.5C9.24982 3.5 6.19982 6.44 6.01982 10.14L4.09982 12.7C3.84982 13.03 4.08982 13.5 4.49982 13.5H5.99982V16.5C5.99982 17.6 6.89982 18.5 7.99982 18.5H8.99982V21.5H15.9998V16.82C18.3598 15.7 19.9998 13.29 19.9998 10.5C19.9998 6.63 16.8698 3.5 12.9998 3.5ZM15.9998 10.5C15.9998 10.63 15.9898 10.76 15.9798 10.89L16.8098 11.55C16.8898 11.61 16.9098 11.71 16.8598 11.8L16.0598 13.19C16.0098 13.28 15.8998 13.31 15.8198 13.28L14.8298 12.88C14.6198 13.04 14.3998 13.17 14.1598 13.27L13.9998 14.33C13.9898 14.43 13.8998 14.5 13.7998 14.5H12.1998C12.0998 14.5 12.0198 14.43 11.9998 14.33L11.8498 13.27C11.5998 13.17 11.3798 13.04 11.1698 12.88L10.1798 13.28C10.0898 13.31 9.97983 13.28 9.92982 13.19L9.12982 11.8C9.07982 11.72 9.09982 11.61 9.17982 11.55L10.0198 10.89C10.0098 10.76 9.99982 10.63 9.99982 10.5C9.99982 10.37 10.0198 10.23 10.0398 10.11L9.18982 9.45C9.10982 9.39 9.08982 9.29 9.13982 9.19L9.93982 7.81C9.98982 7.72 10.0898 7.69 10.1798 7.72L11.1798 8.12C11.3798 7.97 11.6098 7.83 11.8498 7.73L11.9998 6.67C12.0198 6.57 12.0998 6.5 12.1998 6.5H13.7998C13.8998 6.5 13.9798 6.57 13.9998 6.67L14.1498 7.73C14.3898 7.83 14.6098 7.96 14.8198 8.12L15.8198 7.72C15.9098 7.69 16.0198 7.72 16.0598 7.81L16.8598 9.19C16.9098 9.28 16.8898 9.39 16.8098 9.45L15.9598 10.11C15.9898 10.23 15.9998 10.36 15.9998 10.5Z" fill="#F29C1F"/>
</g>
<defs>
<clipPath id="clip0_976_24666">
<rect width="24" height="24" fill="white" transform="translate(0 0.5)"/>
</clipPath>
</defs>
</svg>
