<svg width="24" height="25" viewBox="0 0 24 25" fill="none" xmlns="http://www.w3.org/2000/svg">
<path d="M13.875 15.625C14.17 15.625 14.4175 15.525 14.6175 15.325C14.8167 15.1258 14.9163 14.8787 14.9163 14.5837C14.9163 14.2879 14.8167 14.0404 14.6175 13.8412C14.4175 13.6412 14.17 13.5413 13.875 13.5413C13.58 13.5413 13.3325 13.6412 13.1325 13.8412C12.9333 14.0404 12.8337 14.2879 12.8337 14.5837C12.8337 14.8787 12.9333 15.1258 13.1325 15.325C13.3325 15.525 13.58 15.625 13.875 15.625ZM13.12 12.4475H14.63C14.63 11.9442 14.6692 11.5842 14.7475 11.3675C14.8258 11.15 15.0212 10.8938 15.3337 10.5988C15.6979 10.2513 16.0233 9.90417 16.31 9.5575C16.5967 9.21 16.74 8.76708 16.74 8.22875C16.74 7.44792 16.475 6.81875 15.945 6.34125C15.4158 5.86375 14.7258 5.625 13.875 5.625C13.215 5.625 12.6246 5.81167 12.1038 6.185C11.5829 6.55833 11.2183 7.06625 11.01 7.70875L12.365 8.28125C12.4867 7.88208 12.6817 7.57833 12.95 7.37C13.2192 7.16167 13.5275 7.0575 13.875 7.0575C14.2742 7.0575 14.5996 7.17042 14.8512 7.39625C15.1029 7.62208 15.2288 7.91708 15.2288 8.28125C15.2288 8.64542 15.0942 8.96208 14.825 9.23125C14.5567 9.50042 14.2746 9.77417 13.9788 10.0525C13.5971 10.3992 13.3583 10.7158 13.2625 11.0025C13.1675 11.2892 13.12 11.7708 13.12 12.4475ZM7.625 18.75C7.10417 18.75 6.66167 18.5675 6.2975 18.2025C5.9325 17.8383 5.75 17.3958 5.75 16.875V4.375C5.75 3.85417 5.9325 3.41167 6.2975 3.0475C6.66167 2.6825 7.10417 2.5 7.625 2.5H20.125C20.6458 2.5 21.0883 2.6825 21.4525 3.0475C21.8175 3.41167 22 3.85417 22 4.375V16.875C22 17.3958 21.8175 17.8383 21.4525 18.2025C21.0883 18.5675 20.6458 18.75 20.125 18.75H7.625ZM7.625 16.875H20.125V4.375H7.625V16.875ZM3.875 22.5C3.35417 22.5 2.91167 22.3175 2.5475 21.9525C2.1825 21.5883 2 21.1458 2 20.625V6.25H3.875V20.625H18.25V22.5H3.875Z" fill="#532437"/>
</svg>
