<svg width="25" height="24" viewBox="0 0 25 24" fill="none" xmlns="http://www.w3.org/2000/svg">
<mask id="mask0_1159_26759" style="mask-type:alpha" maskUnits="userSpaceOnUse" x="0" y="0" width="25" height="24">
<rect x="0.5" width="24" height="24" fill="#D9D9D9"/>
</mask>
<g mask="url(#mask0_1159_26759)">
<path d="M16 11C16.4167 11 16.7707 10.854 17.062 10.562C17.354 10.2707 17.5 9.91667 17.5 9.5C17.5 9.08333 17.354 8.72933 17.062 8.438C16.7707 8.146 16.4167 8 16 8C15.5833 8 15.2293 8.146 14.938 8.438C14.646 8.72933 14.5 9.08333 14.5 9.5C14.5 9.91667 14.646 10.2707 14.938 10.562C15.2293 10.854 15.5833 11 16 11ZM9 11C9.41667 11 9.77067 10.854 10.062 10.562C10.354 10.2707 10.5 9.91667 10.5 9.5C10.5 9.08333 10.354 8.72933 10.062 8.438C9.77067 8.146 9.41667 8 9 8C8.58333 8 8.22933 8.146 7.938 8.438C7.646 8.72933 7.5 9.08333 7.5 9.5C7.5 9.91667 7.646 10.2707 7.938 10.562C8.22933 10.854 8.58333 11 9 11ZM12.5 13.5C11.3667 13.5 10.3377 13.8207 9.413 14.462C8.48767 15.104 7.81667 15.95 7.4 17H9.05C9.41667 16.3833 9.904 15.8957 10.512 15.537C11.1207 15.179 11.7833 15 12.5 15C13.2167 15 13.8793 15.179 14.488 15.537C15.096 15.8957 15.5833 16.3833 15.95 17H17.6C17.1833 15.95 16.5127 15.104 15.588 14.462C14.6627 13.8207 13.6333 13.5 12.5 13.5ZM12.5 22C11.1167 22 9.81667 21.7373 8.6 21.212C7.38333 20.6873 6.325 19.975 5.425 19.075C4.525 18.175 3.81267 17.1167 3.288 15.9C2.76267 14.6833 2.5 13.3833 2.5 12C2.5 10.6167 2.76267 9.31667 3.288 8.1C3.81267 6.88333 4.525 5.825 5.425 4.925C6.325 4.025 7.38333 3.31233 8.6 2.787C9.81667 2.26233 11.1167 2 12.5 2C13.8833 2 15.1833 2.26233 16.4 2.787C17.6167 3.31233 18.675 4.025 19.575 4.925C20.475 5.825 21.1873 6.88333 21.712 8.1C22.2373 9.31667 22.5 10.6167 22.5 12C22.5 13.3833 22.2373 14.6833 21.712 15.9C21.1873 17.1167 20.475 18.175 19.575 19.075C18.675 19.975 17.6167 20.6873 16.4 21.212C15.1833 21.7373 13.8833 22 12.5 22ZM12.5 20C14.7333 20 16.625 19.225 18.175 17.675C19.725 16.125 20.5 14.2333 20.5 12C20.5 9.76667 19.725 7.875 18.175 6.325C16.625 4.775 14.7333 4 12.5 4C10.2667 4 8.375 4.775 6.825 6.325C5.275 7.875 4.5 9.76667 4.5 12C4.5 14.2333 5.275 16.125 6.825 17.675C8.375 19.225 10.2667 20 12.5 20Z" fill="#532437"/>
</g>
</svg>
