<svg width="96" height="96" viewBox="0 0 96 96" fill="none" xmlns="http://www.w3.org/2000/svg">
<rect width="96" height="96" rx="8" fill="white"/>
<path d="M15.4368 77.0642V32.0783C15.4368 31.7717 15.4368 31.4652 15.4368 31.1586C15.4636 29.7242 16.0317 29.1421 17.4928 29.128C19.5304 29.1083 21.5709 29.128 23.6072 29.128H32.5917C32.5917 27.6107 32.6578 26.1749 32.572 24.7335C32.4947 23.4411 32.9854 22.6944 34.1625 22.1277C38.4051 20.0816 42.6098 17.9581 46.8187 15.8333C47.6456 15.4114 48.3769 15.4185 49.1981 15.8333C53.4806 17.9896 57.772 20.1271 62.0723 22.2458C63.0033 22.7042 63.4617 23.3441 63.4223 24.4114C63.3675 25.9358 63.4083 27.4644 63.4083 29.0774C63.8006 29.0957 64.124 29.1252 64.4461 29.1266C69.0267 29.1266 73.6064 29.1266 78.1851 29.1266C80.0653 29.1266 80.5631 29.6258 80.5631 31.5088C80.5631 46.2772 80.5631 61.0428 80.5631 75.8056V77.0614C81.1256 77.0614 81.5897 77.0614 82.0551 77.0614C83.2364 77.0853 84.0239 77.7856 84.0028 78.7855C83.9817 79.7853 83.2504 80.4125 82.072 80.4153C76.0139 80.4238 69.9572 80.4153 63.899 80.4224C59.7422 80.4294 55.5853 80.4814 51.427 80.48C46.3209 80.48 41.2134 80.4322 36.1073 80.4224C30.3014 80.4111 24.4954 80.4111 18.6895 80.4224C17.1004 80.4224 15.51 80.4336 13.9209 80.4224C12.7383 80.4069 12.007 79.7614 11.9972 78.7757C11.9873 77.7899 12.772 77.0882 13.9659 77.0657C14.4033 77.0572 14.8476 77.0642 15.4368 77.0642ZM42.8672 77.0249V76.0405C42.8672 73.5894 42.8545 71.1369 42.8672 68.6858C42.877 67.3246 43.5239 66.6946 44.8837 66.6875C46.8933 66.6763 48.9042 66.6875 50.9137 66.6875C52.5295 66.6875 53.1159 67.281 53.1187 68.9221C53.1187 71.3127 53.1187 73.7131 53.1187 76.1094C53.1187 76.4047 53.144 76.7 53.1581 76.9953H60.0136C60.029 76.7141 60.0529 76.4975 60.0529 76.2781C60.0529 59.4228 60.0567 42.568 60.0642 25.7136C60.0642 25.1989 59.9095 24.9163 59.4384 24.6856C55.8117 22.9067 52.2089 21.0842 48.5737 19.3138C48.3955 19.2395 48.2043 19.2013 48.0112 19.2013C47.8181 19.2013 47.627 19.2395 47.4487 19.3138C43.8164 21.0856 40.2094 22.9096 36.5826 24.6913C36.0764 24.9388 35.9217 25.2439 35.9301 25.7882C35.9625 27.7935 35.9428 29.7988 35.9428 31.8055V77.0249H42.8672ZM32.5368 77.0249V32.5733H18.8808V77.0249H32.5368ZM77.1333 77.0249V32.5747H63.4715V77.0249H77.1333ZM49.6903 70.1117H46.335V76.9911H49.6903V70.1117Z" fill="#0E0E2C" fill-opacity="0.5"/>
<path d="M47.9986 35.9029C47.3227 35.9147 46.6512 35.7918 46.0233 35.5414C45.3954 35.291 44.8236 34.9182 44.3413 34.4446C43.8589 33.9709 43.4757 33.406 43.2139 32.7828C42.9521 32.1596 42.817 31.4904 42.8164 30.8145C42.8158 30.1385 42.9499 29.4691 43.2106 28.8454C43.4714 28.2218 43.8537 27.6562 44.3352 27.1818C44.8168 26.7074 45.388 26.3336 46.0155 26.0822C46.643 25.8308 47.3142 25.7068 47.9901 25.7174C50.8097 25.7174 53.1328 28.0251 53.1173 30.8123C53.1157 31.4827 52.9819 32.1462 52.7238 32.7649C52.4656 33.3836 52.088 33.9454 51.6127 34.4181C51.1373 34.8909 50.5735 35.2653 49.9534 35.5201C49.3332 35.7749 48.669 35.9049 47.9986 35.9029ZM49.7184 30.8404C49.7245 30.6101 49.6844 30.381 49.6003 30.1665C49.5163 29.952 49.3901 29.7565 49.2293 29.5917C49.0684 29.4268 48.8761 29.2959 48.6637 29.2067C48.4513 29.1174 48.2232 29.0717 47.9929 29.0722C47.7625 29.0726 47.5346 29.1193 47.3226 29.2094C47.1106 29.2995 46.9188 29.4312 46.7586 29.5967C46.5984 29.7622 46.473 29.9582 46.3899 30.173C46.3067 30.3879 46.2675 30.6172 46.2745 30.8474C46.2882 31.2956 46.4761 31.7208 46.7983 32.0326C47.1205 32.3445 47.5515 32.5184 47.9999 32.5175C48.4483 32.5166 48.8786 32.3409 49.1995 32.0277C49.5204 31.7146 49.7066 31.2886 49.7184 30.8404Z" fill="#0E0E2C" fill-opacity="0.5"/>
<path d="M53.0917 63.306C52.5067 63.306 51.9203 63.3327 51.3367 63.299C50.915 63.2789 50.5164 63.1 50.2212 62.7982C49.9259 62.4964 49.7557 62.094 49.7448 61.672C49.7385 61.455 49.7753 61.2389 49.8531 61.0363C49.9309 60.8336 50.0481 60.6484 50.198 60.4915C50.3479 60.3345 50.5275 60.2088 50.7264 60.1218C50.9252 60.0348 51.1394 59.9881 51.3564 59.9845C52.5531 59.9479 53.7541 59.9479 54.9508 59.9845C55.1605 59.9863 55.3678 60.0296 55.5607 60.1118C55.7536 60.1941 55.9283 60.3136 56.0748 60.4637C56.2213 60.6137 56.3367 60.7913 56.4144 60.9861C56.492 61.1809 56.5303 61.3891 56.5272 61.5988C56.5339 61.8146 56.4979 62.0296 56.4212 62.2314C56.3445 62.4332 56.2287 62.6179 56.0803 62.7747C55.932 62.9316 55.754 63.0575 55.5568 63.1453C55.3596 63.2331 55.1469 63.2811 54.9311 63.2863C54.318 63.3327 53.7048 63.306 53.0917 63.306Z" fill="#0E0E2C" fill-opacity="0.5"/>
<path d="M42.8809 63.3086C42.2959 63.3086 41.7095 63.3269 41.1259 63.3086C40.1612 63.2692 39.482 62.5872 39.4652 61.6773C39.4483 60.7225 40.1233 60.0152 41.1428 59.9898C42.2847 59.9617 43.427 59.9617 44.5698 59.9898C45.5289 60.0138 46.2264 60.7169 46.2461 61.6113C46.2672 62.5295 45.543 63.2706 44.5586 63.31C43.9961 63.3255 43.4378 63.3086 42.8809 63.3086Z" fill="#0E0E2C" fill-opacity="0.5"/>
<path d="M42.8796 49.6029C42.2665 49.6029 41.652 49.631 41.0403 49.5944C40.6163 49.5705 40.2178 49.3845 39.9271 49.0749C39.6364 48.7654 39.4758 48.356 39.4785 47.9313C39.4813 47.5067 39.6471 47.0994 39.9417 46.7936C40.2363 46.4878 40.6371 46.3069 41.0614 46.2883C42.2595 46.2489 43.4576 46.2489 44.6557 46.2883C45.0797 46.3014 45.4822 46.4781 45.7787 46.7815C46.0752 47.0848 46.2428 47.4912 46.2462 47.9154C46.2527 48.3518 46.0874 48.7733 45.7859 49.089C45.4844 49.4047 45.0709 49.5892 44.6346 49.6029C44.0524 49.6296 43.4646 49.6029 42.8796 49.6029Z" fill="#0E0E2C" fill-opacity="0.5"/>
<path d="M53.1686 46.2785C53.755 46.2785 54.3414 46.2518 54.925 46.2785C55.884 46.3319 56.5407 47.0393 56.5267 47.966C56.5323 48.3894 56.3704 48.7979 56.0762 49.1024C55.7819 49.4069 55.3793 49.5827 54.9559 49.5916C53.7592 49.6324 52.5653 49.631 51.3615 49.5916C50.9251 49.5827 50.51 49.4014 50.2069 49.0873C49.9039 48.7731 49.7376 48.3518 49.7443 47.9154C49.7598 47.0238 50.4601 46.3235 51.4136 46.2813C51.9986 46.256 52.5836 46.2813 53.1686 46.2813V46.2785Z" fill="#0E0E2C" fill-opacity="0.5"/>
<path d="M42.9187 53.133C43.5051 53.133 44.0915 53.1062 44.6737 53.133C45.0973 53.1509 45.4978 53.3309 45.7923 53.6358C46.0869 53.9408 46.2529 54.3472 46.2562 54.7712C46.2594 55.1951 46.0996 55.6041 45.8098 55.9135C45.5199 56.2229 45.1223 56.409 44.699 56.4334C43.4737 56.4784 42.2479 56.4784 41.0217 56.4334C40.6008 56.4202 40.2019 56.2423 39.9108 55.9381C39.6197 55.6338 39.4596 55.2275 39.465 54.8064C39.465 53.8867 40.1231 53.1836 41.0808 53.14C41.6925 53.1119 42.307 53.14 42.9187 53.14V53.133Z" fill="#0E0E2C" fill-opacity="0.5"/>
<path d="M53.0886 56.454C52.5036 56.454 51.9172 56.4807 51.3336 56.447C50.912 56.4265 50.5138 56.2472 50.219 55.9451C49.9242 55.643 49.7547 55.2405 49.7445 54.8185C49.7399 54.6016 49.7781 54.386 49.8572 54.1839C49.9362 53.9819 50.0544 53.7975 50.2049 53.6413C50.3555 53.4851 50.5355 53.3602 50.7345 53.2739C50.9335 53.1875 51.1476 53.1414 51.3645 53.1381C52.5612 53.1057 53.7551 53.1043 54.9589 53.1381C55.382 53.1447 55.7852 53.3188 56.0801 53.6222C56.3751 53.9256 56.5378 54.3336 56.5325 54.7567C56.5398 54.9728 56.5041 55.1883 56.4274 55.3905C56.3508 55.5928 56.2347 55.7778 56.0859 55.9348C55.9372 56.0918 55.7587 56.2177 55.5609 56.3051C55.363 56.3925 55.1498 56.4398 54.9336 56.4442C54.3176 56.4807 53.7017 56.454 53.0886 56.454Z" fill="#0E0E2C" fill-opacity="0.5"/>
<path d="M25.7457 35.9903C26.3082 35.9903 26.8623 35.9551 27.4163 35.9973C28.4232 36.0747 29.0518 36.7244 29.0644 37.6398C29.0771 38.5553 28.4583 39.2851 27.4712 39.3358C26.2753 39.3997 25.0769 39.3997 23.881 39.3358C22.8966 39.2809 22.2905 38.5398 22.3173 37.6159C22.3412 36.7272 22.9416 36.0887 23.9091 36.0072C24.5166 35.9565 25.1326 35.9973 25.7457 35.9973V35.9903Z" fill="#0E0E2C" fill-opacity="0.5"/>
<path d="M25.6846 59.876C25.0729 59.876 24.4556 59.9252 23.8565 59.8647C22.9003 59.7705 22.3181 59.1025 22.3223 58.2054C22.3265 57.3082 22.9228 56.6036 23.8692 56.5516C25.0926 56.4841 26.3188 56.4841 27.5423 56.5516C28.4845 56.6064 29.0765 57.3279 29.0737 58.2152C29.0709 59.1025 28.4803 59.7747 27.5268 59.8647C26.9193 59.9238 26.302 59.876 25.6903 59.876H25.6846Z" fill="#0E0E2C" fill-opacity="0.5"/>
<path d="M25.7521 42.8415C26.3357 42.8415 26.9263 42.7923 27.5043 42.8513C28.4985 42.954 29.0906 43.6445 29.0624 44.5754C29.0636 44.9996 28.8965 45.407 28.5979 45.7082C28.2992 46.0095 27.8934 46.1801 27.4692 46.1827C26.2738 46.2376 25.0785 46.2404 23.8776 46.1757C22.9284 46.1251 22.3307 45.4262 22.3167 44.5388C22.3026 43.6515 22.8792 42.9652 23.8326 42.864C24.4654 42.7965 25.1109 42.8499 25.7521 42.8499V42.8415Z" fill="#0E0E2C" fill-opacity="0.5"/>
<path d="M25.6309 53.0243C25.0192 53.0243 24.4004 53.0819 23.8028 53.0102C22.855 52.8991 22.2939 52.2087 22.3192 51.3101C22.3445 50.4494 22.914 49.7632 23.8281 49.7154C25.0786 49.6444 26.3322 49.6444 27.5828 49.7154C28.487 49.7688 29.0537 50.4747 29.065 51.3312C29.0762 52.1876 28.5376 52.8344 27.639 53.0074C27.558 53.0284 27.4751 53.0411 27.3915 53.0454C26.8065 53.0454 26.2215 53.0454 25.6365 53.0454L25.6309 53.0243Z" fill="#0E0E2C" fill-opacity="0.5"/>
<path d="M25.705 66.786C25.0371 66.7565 24.3649 66.7734 23.7053 66.6848C22.8728 66.5723 22.361 65.9606 22.3202 65.1576C22.2766 64.3138 22.7421 63.5376 23.5971 63.4701C24.9814 63.3618 26.372 63.359 27.7568 63.4617C28.6103 63.5249 29.0899 64.2829 29.0618 65.1295C29.0647 65.5239 28.9178 65.9047 28.6507 66.195C28.3837 66.4852 28.0164 66.6633 27.6232 66.6932C26.9918 66.7649 26.3449 66.7073 25.705 66.7073V66.786Z" fill="#0E0E2C" fill-opacity="0.5"/>
<path d="M25.7001 73.5651C25.0884 73.5651 24.4724 73.6031 23.8635 73.5553C22.9495 73.4835 22.3602 72.8592 22.3167 72C22.2745 71.1056 22.8426 70.3223 23.7595 70.2632C25.0374 70.1831 26.3192 70.1831 27.5971 70.2632C28.5182 70.3195 29.0906 71.0873 29.0596 71.9831C29.0301 72.8409 28.4423 73.4498 27.5352 73.5623C27.4523 73.5737 27.3687 73.5803 27.2849 73.582C26.7562 73.582 26.2274 73.582 25.6973 73.582L25.7001 73.5651Z" fill="#0E0E2C" fill-opacity="0.5"/>
<path d="M70.3487 35.9973C70.9323 35.9973 71.5215 35.9552 72.1009 36.0072C73.0614 36.093 73.6604 36.7427 73.6773 37.63C73.6942 38.5173 73.1148 39.2627 72.1768 39.3175C70.9264 39.3941 69.6725 39.3941 68.4221 39.3175C67.487 39.2584 66.9118 38.5159 66.9301 37.623C66.9484 36.73 67.5531 36.1141 68.5107 35.9973C68.5938 35.9875 68.6774 35.9818 68.761 35.9805H70.3487V35.9973Z" fill="#0E0E2C" fill-opacity="0.5"/>
<path d="M70.2389 59.8683C69.6271 59.8683 69.0098 59.9218 68.4107 59.8557C68.0028 59.8286 67.6212 59.6446 67.3459 59.3423C67.0707 59.0401 66.9231 58.643 66.9342 58.2343C66.9271 57.3751 67.4756 56.634 68.37 56.5791C69.6747 56.4952 70.9835 56.4985 72.2878 56.589C73.1821 56.6536 73.7081 57.4074 73.6814 58.2765C73.6546 59.1061 73.1189 59.7052 72.247 59.8599C72.1656 59.8779 72.0828 59.8892 71.9995 59.8936C71.4145 59.8936 70.8295 59.8936 70.2445 59.8936L70.2389 59.8683Z" fill="#0E0E2C" fill-opacity="0.5"/>
<path d="M70.2401 46.1998C69.6776 46.1998 69.1235 46.2335 68.5695 46.1914C67.5851 46.1168 66.9382 45.4475 66.9298 44.5362C66.9213 43.625 67.5316 42.905 68.5301 42.8487C69.7256 42.7847 70.9237 42.7875 72.1188 42.8571C73.1116 42.9176 73.7051 43.6489 73.6756 44.5756C73.646 45.4615 73.0357 46.107 72.0766 46.1843C71.4677 46.2335 70.8518 46.1942 70.2401 46.1942V46.1998Z" fill="#0E0E2C" fill-opacity="0.5"/>
<path d="M70.3198 49.6851C70.9048 49.6851 71.4926 49.6471 72.0734 49.6935C73.0325 49.7709 73.6442 50.4135 73.6737 51.2995C73.7061 52.2262 73.1112 52.9588 72.1198 53.0207C70.9247 53.0924 69.7265 53.0952 68.5311 53.0291C67.4975 52.9729 66.8857 52.2276 66.9322 51.2643C66.9743 50.3629 67.6353 49.7385 68.6492 49.6837C69.2047 49.6527 69.7629 49.6837 70.3198 49.6837V49.6851Z" fill="#0E0E2C" fill-opacity="0.5"/>
<path d="M70.3049 66.7876C69.6384 66.7567 68.9648 66.7721 68.3067 66.6821C67.929 66.64 67.5801 66.4603 67.3264 66.1773C67.0727 65.8944 66.9321 65.5279 66.9314 65.1479C66.8976 64.3042 67.3771 63.5307 68.2195 63.4604C69.6041 63.3556 70.9946 63.3556 72.3792 63.4604C73.2229 63.5251 73.7081 64.2957 73.6743 65.1381C73.6406 65.9804 73.1006 66.5542 72.2245 66.706C72.1157 66.7291 72.0051 66.7432 71.894 66.7482C71.3639 66.7482 70.8351 66.7482 70.3064 66.7482L70.3049 66.7876Z" fill="#0E0E2C" fill-opacity="0.5"/>
<path d="M70.3491 70.22C70.8778 70.22 71.408 70.1989 71.9367 70.22C72.9802 70.272 73.6538 70.9231 73.6692 71.8737C73.6847 72.8243 73.0449 73.5246 71.9958 73.5612C70.8567 73.6034 69.7121 73.6034 68.573 73.5612C67.5633 73.5218 66.9347 72.8581 66.9221 71.9356C66.9094 70.9864 67.5731 70.2875 68.5955 70.2256C69.1777 70.1904 69.7641 70.2256 70.3491 70.2256V70.22Z" fill="#0E0E2C" fill-opacity="0.5"/>
<rect x="1" y="1" width="94" height="94" rx="7" stroke="#0E0E2C" stroke-opacity="0.5" stroke-width="2"/>
</svg>
