<svg width="96" height="96" viewBox="0 0 96 96" fill="none" xmlns="http://www.w3.org/2000/svg">
<rect width="96" height="96" rx="8" fill="white"/>
<path d="M39.2325 20.7082C39.2446 18.973 39.7713 17.2804 40.7459 15.8448C41.7206 14.4091 43.0993 13.295 44.7076 12.6435C46.3158 11.9919 48.0812 11.8323 49.7803 12.1847C51.4793 12.5372 53.0356 13.3859 54.252 14.6234C55.4683 15.8609 56.2902 17.4315 56.6133 19.1364C56.9365 20.8412 56.7465 22.6036 56.0673 24.2004C55.3882 25.7973 54.2505 27.1566 52.7983 28.1064C51.3461 29.0562 49.6447 29.5537 47.9096 29.5359C43.0981 29.5035 39.2128 25.5507 39.2325 20.7082ZM53.3997 20.7377C53.389 19.3098 52.816 17.9436 51.805 16.9352C50.7939 15.9268 49.4262 15.3574 47.9983 15.3504C45.0196 15.335 42.5814 17.8055 42.5997 20.8208C42.6108 22.253 43.1902 23.6221 44.2107 24.627C44.716 25.1246 45.3144 25.5177 45.9716 25.7841C46.6288 26.0504 47.3321 26.1847 48.0412 26.1792C48.7504 26.1738 49.4515 26.0287 50.1046 25.7523C50.7576 25.4759 51.3499 25.0735 51.8474 24.5683C52.345 24.063 52.7382 23.4646 53.0045 22.8074C53.2709 22.1501 53.4051 21.4469 53.3997 20.7377Z" fill="#0E0E2C" fill-opacity="0.5"/>
<path d="M66.9653 70.3025H29.0092V71.3231C29.0092 74.9578 29.0092 78.5911 29.0008 82.2258C29.0008 83.2632 28.3096 83.9741 27.3749 83.9981C26.4402 84.022 25.6856 83.2703 25.6533 82.2201C25.6533 82.1075 25.6533 81.9963 25.6533 81.8837C25.6533 77.379 25.6533 72.8786 25.6533 68.3824C25.6533 62.4568 25.6533 56.5309 25.6533 50.6044V49.6359C25.0423 49.6359 24.4947 49.6528 23.9471 49.6359C22.904 49.5993 22.2354 48.9264 22.2354 47.9593C22.2354 46.9922 22.9111 46.3024 23.9556 46.2968C27.5959 46.2799 31.2362 46.2884 34.878 46.287H35.9774C35.717 41.7823 36.9895 37.9618 40.5398 35.1309C42.8257 33.2718 45.7346 32.3545 48.6735 32.566C52.1478 32.7758 55.0195 34.2454 57.2606 36.9088C59.5016 39.5722 60.1914 42.7466 59.9985 46.2884H61.0515C64.6355 46.2884 68.221 46.2968 71.805 46.2884C72.6018 46.2884 73.2479 46.5122 73.5998 47.2653C74.108 48.3521 73.3873 49.5472 72.1682 49.6289C71.5896 49.6683 71.0068 49.6359 70.3269 49.6359V81.6669C70.3269 83.1788 69.7441 83.9896 68.6531 83.9981C67.5622 84.0065 66.9639 83.214 66.9639 81.688C66.9639 78.2504 66.9639 74.8123 66.9639 71.3737L66.9653 70.3025ZM66.9062 56.566C66.6162 56.5449 66.3727 56.5126 66.1291 56.5126C54.0341 56.5126 41.9391 56.5069 29.844 56.4957C29.1739 56.4957 28.9881 56.6913 28.9994 57.3473C29.0322 60.2566 29.0322 63.1626 28.9994 66.0653C28.9994 66.7213 29.1782 66.9226 29.844 66.9226C41.9391 66.9029 54.0341 66.9029 66.1291 66.9226C66.8034 66.9226 66.9836 66.717 66.9737 66.0639C66.9428 63.1583 66.9625 60.2514 66.9583 57.3459C66.9625 57.1024 66.9287 56.8574 66.9062 56.566ZM39.4221 46.2363H56.544C56.91 42.6269 55.9556 39.575 52.9135 37.4874C49.894 35.4138 46.6633 35.2956 43.5199 37.1932C40.1611 39.2217 39.0603 42.3806 39.4221 46.2363ZM47.9964 53.1636H57.3999C60.3125 53.1636 63.2236 53.1425 66.1347 53.1791C66.8175 53.1875 67.0286 52.9651 66.9794 52.3176C66.9259 51.7605 66.9259 51.1995 66.9794 50.6424C67.0709 49.8273 66.7612 49.6204 65.9574 49.6232C56.8312 49.65 47.7036 49.6401 38.5774 49.6401C35.6649 49.6401 32.7537 49.6612 29.8496 49.6246C29.1683 49.6162 28.9572 49.8372 29.005 50.4861C29.0578 51.071 29.0578 51.6595 29.005 52.2444C28.9276 52.9933 29.2035 53.1833 29.9411 53.1805C35.9535 53.1509 41.9728 53.1636 47.9964 53.1636Z" fill="#0E0E2C" fill-opacity="0.5"/>
<rect x="1" y="1" width="94" height="94" rx="7" stroke="#0E0E2C" stroke-opacity="0.5" stroke-width="2"/>
</svg>
