<svg width="96" height="96" viewBox="0 0 96 96" fill="none" xmlns="http://www.w3.org/2000/svg">
<rect width="96" height="96" rx="8" fill="white"/>
<path d="M23.3054 19.5335V27.2679C23.3054 29.0243 23.318 30.7835 23.3054 32.5385C23.2927 33.8731 22.5474 34.6901 21.4027 34.6774C20.2904 34.6648 19.5872 33.8956 19.5746 32.5681C19.5563 28.5616 19.5464 24.5524 19.583 20.5474C19.59 19.7431 19.3777 19.3999 18.548 19.5166C18.2093 19.5497 17.868 19.5468 17.5299 19.5082C16.5118 19.4407 15.796 18.6996 15.7735 17.7251C15.7704 17.2582 15.9418 16.807 16.2539 16.4598C16.566 16.1126 16.9964 15.8943 17.461 15.8477C17.648 15.8322 17.8359 15.8275 18.0235 15.8337H81.7632C83.0879 15.8337 83.8599 16.3962 83.9794 17.4382C84.1102 18.5632 83.4014 19.4421 82.2638 19.5124C81.6268 19.5518 80.9841 19.5195 80.295 19.5195V57.4882C80.8013 57.4882 81.3118 57.4798 81.8208 57.4882C83.1905 57.5135 83.9935 58.2012 84.0019 59.3459C84.0104 60.4906 83.22 61.219 81.8489 61.226C77.865 61.2429 73.8811 61.2331 69.8958 61.2331C66.4983 61.2331 63.1008 61.2499 59.7033 61.2246C58.065 61.212 57.1088 59.952 57.6924 58.6287C58.1002 57.7076 58.8989 57.4812 59.8271 57.4826C64.2436 57.4891 68.6602 57.4891 73.0768 57.4826H76.4799C76.4982 57.0607 76.5249 56.7331 76.5249 56.404C76.5249 44.4762 76.5324 32.5474 76.5474 20.6177C76.5474 19.7065 76.2661 19.504 75.3928 19.5054C58.4072 19.5298 41.4211 19.5359 24.4346 19.5237L23.3054 19.5335Z" fill="#0E0E2C" fill-opacity="0.5"/>
<path d="M38.0915 71.1937C38.4796 70.7451 38.7946 70.3837 39.111 70.0138C46.4873 61.2238 53.8659 52.4352 61.2468 43.6481C61.6293 43.1924 62.1145 42.7213 62.6531 42.5231C63.4265 42.2334 64.1873 42.4991 64.6739 43.236C65.204 44.0362 65.0957 44.8181 64.5023 45.5352C63.0623 47.2659 61.6171 48.9923 60.1668 50.7145C53.1093 59.1266 46.057 67.544 39.0098 75.9665C38.6793 76.3645 38.5359 77.0127 38.5148 77.5527C38.4473 79.2726 37.8117 80.1909 36.5798 80.1684C35.369 80.1473 34.7685 79.2641 34.7264 77.5823C34.6842 75.861 34.7896 74.1004 34.4578 72.4312C33.5409 67.8102 29.0873 64.611 24.4439 65.0413C19.5403 65.4956 15.8109 69.4612 15.7251 74.3226C15.7026 75.5559 15.7251 76.7891 15.7125 78.0224C15.6942 79.2951 14.97 80.1318 13.8843 80.1613C12.7593 80.1937 11.9535 79.371 12 78.0252C12.0801 75.7556 11.9648 73.4226 12.457 71.2331C13.71 65.6685 18.8203 61.5524 24.3187 61.3373C30.54 61.094 35.7909 64.559 37.7554 70.2037C37.8525 70.4877 37.9481 70.7704 38.0915 71.1937Z" fill="#0E0E2C" fill-opacity="0.5"/>
<path d="M34.9006 48.1539C34.9093 49.4366 34.6636 50.7084 34.1777 51.8956C33.6918 53.0828 32.9753 54.1618 32.0697 55.0703C31.164 55.9788 30.0873 56.6987 28.9016 57.1884C27.716 57.6781 26.445 57.9278 25.1623 57.9231C19.8945 57.9161 15.5843 53.6087 15.552 48.3198C15.5182 42.9648 19.7834 38.6167 25.092 38.5773C30.5173 38.545 34.8696 42.7933 34.9006 48.1539ZM31.1698 48.2523C31.177 47.0715 30.8332 45.9152 30.1821 44.9301C29.5309 43.9451 28.6017 43.1757 27.5125 42.7197C26.4233 42.2637 25.2231 42.1416 24.0644 42.369C22.9057 42.5964 21.8406 43.1629 21.0045 43.9967C20.1683 44.8304 19.5987 45.8939 19.3681 47.052C19.1374 48.21 19.2561 49.4105 19.709 50.5011C20.1619 51.5916 20.9286 52.5229 21.9118 53.1769C22.895 53.8309 24.0504 54.1779 25.2312 54.1741C26.0112 54.1798 26.7847 54.0307 27.5067 53.7354C28.2287 53.44 28.8849 53.0043 29.4373 52.4535C29.9897 51.9027 30.4272 51.2478 30.7246 50.5266C31.022 49.8054 31.1733 49.0324 31.1698 48.2523Z" fill="#0E0E2C" fill-opacity="0.5"/>
<path d="M51.7954 34.7677C56.5842 34.7677 61.372 34.7677 66.1589 34.7677C66.5594 34.7567 66.9602 34.784 67.3556 34.8493C67.7563 34.9147 68.1214 35.1185 68.3873 35.4253C68.6532 35.7321 68.8032 36.1224 68.811 36.5284C68.8603 37.4269 68.3624 38.1568 67.4807 38.393C67.1217 38.4791 66.753 38.5183 66.3839 38.5098C56.6526 38.5154 46.9223 38.5154 37.1929 38.5098C35.8331 38.5098 35.0976 38.0794 34.8431 37.1541C34.5449 36.0769 35.1412 35.0644 36.2367 34.8465C36.6325 34.7814 37.0338 34.7551 37.4348 34.7677C42.2273 34.764 47.0142 34.764 51.7954 34.7677Z" fill="#0E0E2C" fill-opacity="0.5"/>
<path d="M55.6111 30.9339C51.9407 30.9339 48.269 30.9424 44.5987 30.9339C43.1193 30.9339 42.2081 30.0635 42.3726 28.8499C42.4893 28.0061 42.9604 27.4436 43.8239 27.2707C44.1879 27.2076 44.557 27.1788 44.9264 27.1849C52.0514 27.1793 59.1764 27.1793 66.3014 27.1849C66.6716 27.1747 67.0419 27.2058 67.4053 27.2777C68.249 27.4704 68.7229 28.0343 68.8045 28.8963C68.8861 29.7583 68.4304 30.5093 67.6176 30.7666C67.206 30.8826 66.7795 30.9371 66.352 30.9283C62.7647 30.9452 59.19 30.9339 55.6111 30.9339Z" fill="#0E0E2C" fill-opacity="0.5"/>
<rect x="1" y="1" width="94" height="94" rx="7" stroke="#0E0E2C" stroke-opacity="0.5" stroke-width="2"/>
</svg>
